<?xml version="1.0" encoding="UTF-8" standalone="no"?><!DOCTYPE svg PUBLIC "-//W3C//DTD SVG 1.1//EN" "http://www.w3.org/Graphics/SVG/1.1/DTD/svg11.dtd"><svg width="100%" height="100%" viewBox="0 0 367 252" version="1.1" xmlns="http://www.w3.org/2000/svg" xmlns:xlink="http://www.w3.org/1999/xlink" xml:space="preserve" xmlns:serif="http://www.serif.com/" style="fill-rule:evenodd;clip-rule:evenodd;stroke-linejoin:round;stroke-miterlimit:2;"><path d="M101.893,43.06c36.253,1.554 44.255,-36.285 73.233,-36.285c26.914,-0 30.493,36.913 55.457,48.052c14.775,6.592 38.868,8.276 54.878,10.21c27.215,3.288 57.018,8.251 69.24,35.423c6.884,15.304 2.584,39.005 -13.389,46.996c-28.708,14.36 -96.016,10.603 -123.203,28.336c-48.127,31.392 -56.715,69.823 -123.32,64.977c-38.065,-2.769 -91.684,-23.874 -68.449,-67.269c11.236,-20.985 55.846,-28.239 56.97,-44.424c1.468,-21.159 -55.008,-48.857 -35.831,-75.536c12.883,-17.922 45.103,-10.88 54.414,-10.48Zm27.282,31.976c24.17,-13.518 24.302,-40.196 45.696,-40.196c19.871,-0 14.374,58.693 45.696,54.488c40.006,-5.371 82.031,-0.344 78.587,22.851c-5.212,35.108 -61.777,5.438 -99.619,31.818c-11.983,8.354 -30.907,31.106 -42.072,49.385c-21.754,35.613 -73.939,40.043 -86.23,2.127c-12.192,-37.608 56.701,-47.371 52.556,-66.174c-5.293,-24.004 -61.919,-31.795 -43.734,-57.349c11.661,-16.386 33.912,11.556 49.12,3.05Z" style="fill:#6f9ed3;"/></svg>