<?xml version="1.0" encoding="UTF-8" standalone="no"?><!DOCTYPE svg PUBLIC "-//W3C//DTD SVG 1.1//EN" "http://www.w3.org/Graphics/SVG/1.1/DTD/svg11.dtd"><svg width="100%" height="100%" viewBox="0 0 289 223" version="1.1" xmlns="http://www.w3.org/2000/svg" xmlns:xlink="http://www.w3.org/1999/xlink" xml:space="preserve" xmlns:serif="http://www.serif.com/" style="fill-rule:evenodd;clip-rule:evenodd;stroke-linejoin:round;stroke-miterlimit:2;"><path d="M-124.35,-217.318c43.302,1.857 52.86,-43.34 87.472,-43.34c32.148,0 36.423,44.091 66.241,57.395c17.647,7.875 46.425,9.886 65.548,12.196c32.507,3.927 68.106,9.856 82.704,42.31c8.223,18.281 3.087,46.591 -15.992,56.134c-34.291,17.153 -114.687,12.666 -147.159,33.847c-57.485,37.496 -67.744,83.4 -147.299,77.612c-45.467,-3.308 -109.512,-28.517 -81.759,-80.35c13.42,-25.065 66.705,-33.73 68.047,-53.062c1.754,-25.273 -65.704,-58.357 -42.798,-90.224c15.388,-21.407 53.874,-12.995 64.995,-12.518Zm32.587,38.194c28.869,-16.147 29.027,-48.012 54.581,-48.012c23.735,-0 17.169,70.106 54.581,65.083c47.785,-6.416 97.982,-0.41 93.869,27.294c-6.226,41.935 -73.79,6.496 -118.99,38.005c-14.313,9.978 -36.917,37.154 -50.253,58.988c-25.984,42.538 -88.316,47.829 -102.997,2.541c-14.562,-44.921 67.727,-56.583 62.775,-79.041c-6.321,-28.671 -73.958,-37.978 -52.237,-68.5c13.929,-19.573 40.506,13.802 58.671,3.642Z" style="fill:#6f9ed3;"/><path d="M155.7,44.294c32.369,6.815 53.438,-17.091 72.692,-0.29c17.884,15.604 -33.156,64.112 -1.665,84.924c40.224,26.583 74.097,64.111 52.783,82.282c-32.262,27.504 -59.869,-43.621 -114.643,-49.597c-17.345,-1.892 -52.244,3.723 -76.648,11.406c-47.546,14.968 -97.99,-22.028 -79.276,-65.803c18.562,-43.422 88.232,1.894 99.267,-18.283c14.088,-25.759 -30.757,-77.241 5.677,-85.958c23.364,-5.59 21.446,37.031 41.813,41.319Z" style="fill:#6f9ed3;"/></svg>