<svg width="939" height="2475" viewBox="0 0 939 2475" fill="none" xmlns="http://www.w3.org/2000/svg">
<path d="M468 5.99992C392 -15.0001 0.5 30.9996 0.5 30.9996L8 2456H568C620.167 2459 842.1 2495.2 898.5 2456C969 2407 938.5 2299.3 862.5 2275.5C786.5 2251.7 718.498 2304.44 622.5 2334.5C523.5 2365.5 223 2351.5 147 2223C71 2094.5 119.5 1953.5 213 1860.5C306.5 1767.5 323 1661.5 269.5 1587C216 1512.5 125.5 1454.5 106 1336C86.5 1217.5 200.5 1129.5 260 1011.5C319.5 893.5 158 712.499 100.5 587.5C43 462.5 79.5 341 133.5 258.5C187.5 176 316 132 413 124C510 116 544 26.9999 468 5.99992Z" fill="#A5C5E9"/>
</svg>
