<svg width="1440" height="3684" viewBox="0 0 1440 3684" fill="none" xmlns="http://www.w3.org/2000/svg">
<path d="M318 95.0001C443.6 33.8001 732 47 786.5 50.5C841 54 848.5 10 781.5 14.5C714.5 19 558 25.5 362 0C195.5 0 -2.28882e-05 0.00012064 -2.28882e-05 0.00012064V435.869C8.20301 410.217 15.8146 390.162 20.7733 377.097L21 376.5C53.289 291.421 161 171.5 318 95.0001Z" fill="#A5C5E9"/>
<path d="M123.5 1647C223.5 1544.67 386 1362.4 146 1128C74.8685 1058.53 28.6701 984.419 -2.28882e-05 910.669V3683.5L1440 3684.5V3323.5C1433 3332.5 1434.5 3334.5 1376 3394.5C1301.76 3470.65 1085 3605.5 899.5 3570C749.235 3541.24 704.488 3538.8 525.5 3570C307.5 3608 134 3445 89 3277.5C44 3110 138.5 2918.5 292 2807C445.5 2695.5 513 2594 464 2475.5C424.8 2380.7 245.85 2279.18 146 2199.5C-3.05176e-05 2083 -12.3306 1786 123.5 1647Z" fill="#A5C5E9"/>
</svg>
