<svg width="1318" height="2573" viewBox="0 0 1318 2573" fill="none" xmlns="http://www.w3.org/2000/svg">
<path d="M248.5 92.0001C349.07 57.7721 569.5 33.974 626 43.0001C682.5 52.0261 678.5 12.109 626 17.519C573.5 22.9291 442 17.519 361.933 6.19888e-05C281.866 -17.5189 -0.0896416 0.000145912 -0.0896416 0.000145912V304.463C8.11391 286.545 15.7259 272.536 20.685 263.41L20.9117 262.993C51.9617 202.906 147.93 126.228 248.5 92.0001Z" fill="#A5C5E9"/>
<path d="M118.5 1193.5C218.506 1122.02 385.934 1000.73 145.919 837C74.7836 788.473 28.5823 755.015 -0.0896416 703.5V2573H1197C1197 2573 1318 2566.8 1318 2483.98C1318 2401.16 1209.48 2389.09 1153.5 2435.67C1116.5 2466.46 1084.98 2518.52 899.466 2493.72C749.192 2473.63 704.442 2471.92 525.443 2493.72C307.429 2520.26 133.919 2406.4 88.9159 2289.4C43.9131 2172.4 138.419 2038.63 291.929 1960.75C445.438 1882.86 512.942 1811.96 463.939 1729.19C424.737 1662.97 245.776 1592.05 145.919 1536.4C-0.0896454 1455.02 -17.3391 1290.59 118.5 1193.5Z" fill="#A5C5E9"/>
</svg>
